<?xml version="1.0" encoding="iso-8859-1"?>
<!-- Generator: Adobe Illustrator 19.0.0, SVG Export Plug-In . SVG Version: 6.00 Build 0)  -->
<svg version="1.1" id="Layer_1" xmlns="http://www.w3.org/2000/svg" xmlns:xlink="http://www.w3.org/1999/xlink" x="0px" y="0px"
	 viewBox="0 0 511.981 511.981" style="enable-background:new 0 0 511.981 511.981;" xml:space="preserve">
<path style="fill:#E6E9ED;" d="M469.311,127.995H42.665c-5.891,0-10.664,4.781-10.664,10.672v42.67
	c0,5.891,4.773,10.656,10.664,10.656h426.646c5.891,0,10.672-4.766,10.672-10.656v-42.67
	C479.983,132.776,475.202,127.995,469.311,127.995z"/>
<path style="fill:#48CFAD;" d="M255.992,0.001c-41.17,0-74.669,33.498-74.669,74.669c0,41.17,33.499,74.668,74.669,74.668
	c41.155,0,74.653-33.498,74.653-74.668C330.645,33.499,297.147,0.001,255.992,0.001z"/>
<g>
	<path style="fill:#E6E9ED;" d="M255.992,127.995c-17.648,0-31.999-14.343-31.999-31.999c0-17.64,14.351-31.998,31.999-31.998
		c17.639,0,31.999,14.358,31.999,31.998C287.991,113.652,273.632,127.995,255.992,127.995z"/>
	<path style="fill:#E6E9ED;" d="M266.657,42.671c0,5.891-4.773,10.671-10.665,10.671c-5.89,0-10.671-4.78-10.671-10.671
		s4.781-10.672,10.671-10.672C261.884,31.999,266.657,36.78,266.657,42.671z"/>
	<path style="fill:#E6E9ED;" d="M233.353,47.624c4.172,4.172,4.172,10.921,0,15.093c-4.164,4.156-10.913,4.156-15.077,0
		c-4.172-4.172-4.172-10.921,0-15.093C222.44,43.468,229.189,43.468,233.353,47.624z"/>
	<path style="fill:#E6E9ED;" d="M278.616,47.624c4.172-4.156,10.922-4.156,15.078,0c4.172,4.172,4.172,10.921,0,15.093
		c-4.156,4.156-10.906,4.156-15.078,0C274.444,58.545,274.444,51.796,278.616,47.624z"/>
	<path style="fill:#E6E9ED;" d="M490.639,255.99H21.33c-5.891,0-10.664,4.781-10.664,10.671v234.662
		c0,5.875,4.773,10.656,10.664,10.656h469.309c5.891,0,10.67-4.781,10.67-10.656V266.661
		C501.309,260.771,496.53,255.99,490.639,255.99z"/>
</g>
<path style="fill:#48CFAD;" d="M298.647,319.987h-85.325c-5.89,0-10.664,4.78-10.664,10.655v170.681
	c0,5.875,4.773,10.656,10.664,10.656h85.325c5.891,0,10.672-4.781,10.672-10.656V330.642
	C309.319,324.767,304.538,319.987,298.647,319.987z"/>
<path style="fill:#37BC9B;" d="M510.606,240.084l-31.764-63.513c-1.797-3.625-5.5-5.906-9.531-5.906H42.665
	c-4.039,0-7.734,2.281-9.539,5.906L1.128,240.568c-1.656,3.297-1.477,7.219,0.461,10.375c1.945,3.141,5.383,5.047,9.077,5.047
	h490.643c0,0.016,0,0.016,0.016,0c5.891,0,10.656-4.766,10.656-10.656C511.981,243.428,511.481,241.631,510.606,240.084z"/>
<g>
	<path style="fill:#434A54;" d="M245.321,415.983c0,5.906-4.773,10.656-10.664,10.656s-10.664-4.75-10.664-10.656
		s4.773-10.656,10.664-10.656S245.321,410.077,245.321,415.983z"/>
	<path style="fill:#434A54;" d="M501.309,511.979H10.666c-5.89,0-10.663-4.781-10.663-10.656c0-5.906,4.773-10.688,10.663-10.688
		h490.643c5.891,0,10.672,4.781,10.672,10.688C511.981,507.198,507.2,511.979,501.309,511.979z"/>
</g>
<path style="fill:#48CFAD;" d="M501.309,234.662H10.666c-5.89,0-10.663,4.781-10.663,10.672v39.779c0,3.812,2.023,7.344,5.32,9.25
	c4.858,2.812,10.39,4.281,16.007,4.281c8.187,0,15.671-3.094,21.335-8.156c5.664,5.062,13.14,8.156,21.335,8.156
	c8.187,0,15.663-3.094,21.327-8.156c5.664,5.062,13.148,8.156,21.335,8.156s15.664-3.094,21.335-8.156
	c5.664,5.062,13.14,8.156,21.328,8.156c8.187,0,15.671-3.094,21.334-8.156c5.664,5.062,13.14,8.156,21.335,8.156
	c8.187,0,15.664-3.094,21.327-8.156c5.664,5.062,13.147,8.156,21.335,8.156c8.187,0,15.664-3.094,21.335-8.156
	c5.665,5.062,13.139,8.156,21.327,8.156s15.672-3.094,21.328-8.156c5.672,5.062,13.141,8.156,21.344,8.156
	c8.186,0,15.654-3.094,21.326-8.156c5.656,5.062,13.141,8.156,21.328,8.156c8.186,0,15.67-3.094,21.342-8.156
	c5.656,5.062,13.141,8.156,21.328,8.156s15.672-3.094,21.326-8.156c5.672,5.062,13.141,8.156,21.344,8.156
	c8.188,0,15.654-3.094,21.326-8.156c5.656,5.062,13.141,8.156,21.328,8.156c5.625,0,11.154-1.469,16.014-4.281
	c3.297-1.906,5.328-5.438,5.328-9.25v-39.779C511.981,239.443,507.2,234.662,501.309,234.662z"/>
<g>
	<path style="fill:#5D9CEC;" d="M159.996,469.324H74.664c-5.891,0-10.664-4.781-10.664-10.686v-85.31
		c0-29.406,23.92-53.342,53.326-53.342s53.333,23.936,53.333,53.342v85.31C170.66,464.543,165.887,469.324,159.996,469.324z"/>
	<path style="fill:#5D9CEC;" d="M437.313,469.324h-85.324c-5.891,0-10.672-4.781-10.672-10.686v-85.31
		c0-29.406,23.922-53.342,53.326-53.342c29.406,0,53.342,23.936,53.342,53.342v85.31
		C447.985,464.543,443.204,469.324,437.313,469.324z"/>
</g>
<g>
	<path style="fill:#4FC2E9;" d="M394.643,319.987c-29.404,0-53.326,23.936-53.326,53.342h106.668
		C447.985,343.923,424.05,319.987,394.643,319.987z"/>
	<path style="fill:#4FC2E9;" d="M117.326,319.987C87.921,319.987,64,343.923,64,373.329h106.659
		C170.66,343.923,146.732,319.987,117.326,319.987z"/>
</g>
<g>
</g>
<g>
</g>
<g>
</g>
<g>
</g>
<g>
</g>
<g>
</g>
<g>
</g>
<g>
</g>
<g>
</g>
<g>
</g>
<g>
</g>
<g>
</g>
<g>
</g>
<g>
</g>
<g>
</g>
</svg>
